<svg width="54" height="54" viewBox="0 0 54 54" fill="none" xmlns="http://www.w3.org/2000/svg">
<path d="M25.8303 46.0801C24.9396 46.0805 24.084 45.7334 23.4453 45.1126L7.69528 29.3626C6.37924 28.0449 6.37924 25.9103 7.69528 24.5926L23.4453 8.8426C24.3014 7.99052 25.547 7.65989 26.713 7.97525C27.879 8.29062 28.7881 9.20406 29.098 10.3715C29.4079 11.5389 29.0714 12.783 28.2153 13.6351L18.2423 23.6249H43.92C45.784 23.6249 47.295 25.136 47.295 26.9999C47.295 28.8639 45.784 30.3749 43.92 30.3749H18.2533L28.2153 40.3201C29.1793 41.2853 29.4674 42.7359 28.9456 43.9963C28.4237 45.2566 27.1944 46.0789 25.8303 46.0801Z" fill="#FECB00"/>
</svg>
