<svg width="120" height="120" viewBox="0 0 120 120" fill="none" xmlns="http://www.w3.org/2000/svg">
<path d="M70.2435 95.0235C73.8362 97.3448 78.1174 98.3564 82.3672 97.8882C86.6171 97.42 90.5764 95.5005 93.5793 92.4526L96.2046 89.8817C97.3556 88.7026 98 87.1192 98 85.4703C98 83.8213 97.3556 82.2379 96.2046 81.0588L85.0618 70.0157C83.8944 68.8667 82.3231 68.2228 80.6863 68.2228C79.0495 68.2228 77.4782 68.8667 76.3108 70.0157C75.1336 71.1684 73.5526 71.8139 71.9062 71.8139C70.2598 71.8139 68.6788 71.1684 67.5015 70.0157L49.9997 52.4869C49.4158 51.9107 48.9522 51.2239 48.6357 50.4666C48.3193 49.7093 48.1563 48.8965 48.1563 48.0755C48.1563 47.2545 48.3193 46.4418 48.6357 45.6844C48.9522 44.9271 49.4158 44.2404 49.9997 43.6641C51.1469 42.4949 51.7898 40.9212 51.7898 39.2819C51.7898 37.6426 51.1469 36.0689 49.9997 34.8997L38.9151 23.7981C37.7379 22.6454 36.1569 22 34.5105 22C32.8641 22 31.2831 22.6454 30.1059 23.7981L27.5389 26.4275C24.4956 29.4351 22.5791 33.4004 22.1116 37.6568C21.6441 41.9132 22.6542 46.201 24.972 49.7992C37.0485 67.6244 52.4146 82.9744 70.2435 95.0235Z" stroke="#FECB00" stroke-width="7" stroke-linecap="round" stroke-linejoin="round"/>
<rect x="3.5" y="3.5" width="113" height="113" rx="56.5" stroke="#FECB00" stroke-width="7"/>
<rect width="21.4053" height="28" transform="translate(20 37.9009) rotate(-47.9749)" fill="#FECB00"/>
<rect width="14.6319" height="69.8561" transform="translate(22 46.1812) rotate(-44.0928)" fill="#FECB00"/>
<rect width="14.6319" height="27.3687" transform="translate(68 76.1812) rotate(-44.0928)" fill="#FECB00"/>
<rect width="14.6319" height="25.1778" transform="translate(72.5171 73.6499) rotate(-0.826553)" fill="#FECB00"/>
</svg>
