<svg width="36" height="36" viewBox="0 0 36 36" fill="none" xmlns="http://www.w3.org/2000/svg">
<path d="M20.194 20.853C20.194 19.4778 19.0792 18.363 17.704 18.363C16.3288 18.363 15.214 19.4778 15.214 20.853C15.2119 21.436 15.4195 22.0004 15.799 22.443C16.1813 22.8414 16.3138 23.4176 16.144 23.943L15.829 24.873C15.7071 25.2913 15.7877 25.7424 16.0467 26.0926C16.3057 26.4428 16.7134 26.652 17.149 26.658H18.259C18.709 26.6579 19.1312 26.4407 19.3931 26.0747C19.6549 25.7088 19.7241 25.239 19.579 24.813L19.204 23.883C19.0341 23.3576 19.1667 22.7814 19.549 22.383C19.9369 21.9646 20.1653 21.4229 20.194 20.853Z" fill="#FECB00"/>
<path fill-rule="evenodd" clip-rule="evenodd" d="M24.829 12.183V7.50303C24.8298 6.28041 24.3331 5.11008 23.4532 4.26126C22.5732 3.41244 21.3858 2.9582 20.164 3.00303H15.244C14.0222 2.9582 12.8347 3.41244 11.9548 4.26126C11.0748 5.11008 10.5781 6.28041 10.579 7.50303V12.183C7.47174 13.277 5.58205 16.4265 6.07897 19.683L7.50397 28.338C8.20681 31.7857 11.2763 34.2362 14.794 34.158H20.614C24.1568 34.2469 27.2482 31.77 27.934 28.293L29.359 19.638C29.8289 16.3889 27.9293 13.2627 24.829 12.183ZM12.829 7.50303C12.8858 6.22448 13.9652 5.23223 15.244 5.28303H20.164C21.4428 5.23223 22.5222 6.22448 22.579 7.50303V11.658H12.829V7.50303ZM25.204 27.843L26.704 19.158C26.8528 18.0344 26.4957 16.9027 25.729 16.068C24.7965 15.0106 23.4486 14.4134 22.039 14.433H13.369C11.9641 14.4058 10.6169 14.9917 9.67897 16.038C8.9305 16.8928 8.60072 18.036 8.77897 19.158L10.204 27.843C10.669 29.9825 12.6065 31.4768 14.794 31.383H20.614C22.8014 31.4768 24.7389 29.9825 25.204 27.843Z" fill="#FECB00"/>
<path d="M20.194 20.853C20.194 19.4778 19.0792 18.363 17.704 18.363C16.3288 18.363 15.214 19.4778 15.214 20.853C15.2119 21.436 15.4195 22.0004 15.799 22.443C16.1813 22.8414 16.3138 23.4176 16.144 23.943L15.829 24.873C15.7071 25.2913 15.7877 25.7424 16.0467 26.0926C16.3057 26.4428 16.7134 26.652 17.149 26.658H18.259C18.709 26.6579 19.1312 26.4407 19.3931 26.0747C19.6549 25.7088 19.7241 25.239 19.579 24.813L19.204 23.883C19.0341 23.3576 19.1667 22.7814 19.549 22.383C19.9369 21.9646 20.1653 21.4229 20.194 20.853Z" stroke="#FECB00"/>
<path fill-rule="evenodd" clip-rule="evenodd" d="M24.829 12.183V7.50303C24.8298 6.28041 24.3331 5.11008 23.4532 4.26126C22.5732 3.41244 21.3858 2.9582 20.164 3.00303H15.244C14.0222 2.9582 12.8347 3.41244 11.9548 4.26126C11.0748 5.11008 10.5781 6.28041 10.579 7.50303V12.183C7.47174 13.277 5.58205 16.4265 6.07897 19.683L7.50397 28.338C8.20681 31.7857 11.2763 34.2362 14.794 34.158H20.614C24.1568 34.2469 27.2482 31.77 27.934 28.293L29.359 19.638C29.8289 16.3889 27.9293 13.2627 24.829 12.183ZM12.829 7.50303C12.8858 6.22448 13.9652 5.23223 15.244 5.28303H20.164C21.4428 5.23223 22.5222 6.22448 22.579 7.50303V11.658H12.829V7.50303ZM25.204 27.843L26.704 19.158C26.8528 18.0344 26.4957 16.9027 25.729 16.068C24.7965 15.0106 23.4486 14.4134 22.039 14.433H13.369C11.9641 14.4058 10.6169 14.9917 9.67897 16.038C8.9305 16.8928 8.60072 18.036 8.77897 19.158L10.204 27.843C10.669 29.9825 12.6065 31.4768 14.794 31.383H20.614C22.8014 31.4768 24.7389 29.9825 25.204 27.843Z" stroke="#FECB00"/>
</svg>
