<svg width="200" height="120" viewBox="0 0 200 120" fill="none" xmlns="http://www.w3.org/2000/svg">
<mask id="path-1-outside-1_318_258" maskUnits="userSpaceOnUse" x="73" y="57" width="127" height="32" fill="black">
<rect fill="white" x="73" y="57" width="127" height="32"/>
<path d="M79.48 86.97L87.67 68.58H90.25L82.24 86.97H79.48ZM82.54 81.09L76.57 68.58H79.72L84.73 79.68L82.54 81.09ZM98.7213 81.3C97.3013 81.3 96.0813 81.02 95.0613 80.46C94.0413 79.88 93.2513 79.1 92.6913 78.12C92.1513 77.12 91.8813 75.98 91.8813 74.7C91.8813 73.48 92.1913 72.37 92.8113 71.37C93.4313 70.37 94.2613 69.57 95.3013 68.97C96.3413 68.37 97.5013 68.07 98.7813 68.07C100.421 68.07 101.781 68.55 102.861 69.51C103.941 70.47 104.671 71.79 105.051 73.47L94.8213 77.07L94.1613 75.42L102.561 72.36L101.961 72.75C101.721 72.09 101.321 71.52 100.761 71.04C100.201 70.54 99.4713 70.29 98.5713 70.29C97.8113 70.29 97.1313 70.48 96.5313 70.86C95.9313 71.22 95.4613 71.72 95.1213 72.36C94.7813 73 94.6113 73.73 94.6113 74.55C94.6113 75.41 94.7913 76.17 95.1513 76.83C95.5113 77.47 96.0013 77.98 96.6213 78.36C97.2613 78.72 97.9813 78.9 98.7813 78.9C99.3213 78.9 99.8413 78.8 100.341 78.6C100.861 78.4 101.341 78.14 101.781 77.82L103.071 79.89C102.451 80.31 101.751 80.65 100.971 80.91C100.211 81.17 99.4613 81.3 98.7213 81.3ZM108.577 64.08L107.167 63.36C107.587 62.96 107.917 62.41 108.157 61.71C108.417 61.01 108.477 60.31 108.337 59.61L110.557 59.4C110.677 59.96 110.657 60.55 110.497 61.17C110.337 61.77 110.087 62.33 109.747 62.85C109.407 63.37 109.017 63.78 108.577 64.08ZM116.574 68.58L116.814 71.37L116.694 71.13C117.154 70.19 117.804 69.45 118.644 68.91C119.504 68.37 120.484 68.1 121.584 68.1C122.284 68.1 122.904 68.21 123.444 68.43C123.984 68.65 124.424 68.97 124.764 69.39C125.124 69.79 125.354 70.29 125.454 70.89L125.304 70.98C125.784 70.08 126.444 69.38 127.284 68.88C128.144 68.36 129.044 68.1 129.984 68.1C131.204 68.1 132.164 68.45 132.864 69.15C133.584 69.83 133.954 70.72 133.974 71.82V81H131.184V72.81C131.164 72.17 131.004 71.64 130.704 71.22C130.424 70.78 129.924 70.54 129.204 70.5C128.484 70.5 127.834 70.72 127.254 71.16C126.694 71.6 126.254 72.17 125.934 72.87C125.614 73.55 125.444 74.29 125.424 75.09V81H122.634V72.81C122.614 72.17 122.444 71.64 122.124 71.22C121.824 70.78 121.314 70.54 120.594 70.5C119.854 70.5 119.204 70.72 118.644 71.16C118.084 71.6 117.644 72.17 117.324 72.87C117.024 73.57 116.874 74.32 116.874 75.12V81H114.084V68.58H116.574ZM147.432 59.31H161.832V62.1H156.012V81H153.102V62.1H147.432V59.31ZM167.701 81.3C166.541 81.3 165.481 81.05 164.521 80.55C163.581 80.05 162.831 79.32 162.271 78.36C161.731 77.38 161.461 76.19 161.461 74.79C161.461 73.41 161.751 72.22 162.331 71.22C162.911 70.2 163.681 69.42 164.641 68.88C165.621 68.34 166.691 68.07 167.851 68.07C169.011 68.07 169.991 68.34 170.791 68.88C171.591 69.4 172.201 70.02 172.621 70.74L172.441 71.22L172.711 68.58H175.291V81H172.501V77.76L172.801 78.48C172.721 78.68 172.541 78.94 172.261 79.26C172.001 79.56 171.641 79.87 171.181 80.19C170.741 80.51 170.231 80.78 169.651 81C169.071 81.2 168.421 81.3 167.701 81.3ZM168.451 78.99C169.151 78.99 169.781 78.86 170.341 78.6C170.901 78.34 171.361 77.98 171.721 77.52C172.101 77.04 172.361 76.47 172.501 75.81V73.38C172.341 72.78 172.061 72.26 171.661 71.82C171.261 71.36 170.781 71.01 170.221 70.77C169.661 70.51 169.041 70.38 168.361 70.38C167.621 70.38 166.941 70.56 166.321 70.92C165.701 71.28 165.201 71.78 164.821 72.42C164.461 73.06 164.281 73.81 164.281 74.67C164.281 75.47 164.471 76.2 164.851 76.86C165.231 77.52 165.741 78.04 166.381 78.42C167.021 78.8 167.711 78.99 168.451 78.99ZM184.799 73.2L187.769 68.58H190.589L185.819 75.24L184.799 73.2ZM191.069 81H187.709L178.259 68.58H181.709L191.069 81ZM184.499 76.38L181.229 81H178.409L183.149 74.52L184.499 76.38ZM194.065 68.58H196.855V81H194.065V68.58ZM193.855 64.08C193.855 63.64 194.025 63.27 194.365 62.97C194.725 62.67 195.115 62.52 195.535 62.52C195.955 62.52 196.325 62.67 196.645 62.97C196.985 63.27 197.155 63.64 197.155 64.08C197.155 64.54 196.985 64.92 196.645 65.22C196.325 65.5 195.955 65.64 195.535 65.64C195.115 65.64 194.725 65.49 194.365 65.19C194.025 64.89 193.855 64.52 193.855 64.08Z"/>
</mask>
<path d="M79.48 86.97L87.67 68.58H90.25L82.24 86.97H79.48ZM82.54 81.09L76.57 68.58H79.72L84.73 79.68L82.54 81.09ZM98.7213 81.3C97.3013 81.3 96.0813 81.02 95.0613 80.46C94.0413 79.88 93.2513 79.1 92.6913 78.12C92.1513 77.12 91.8813 75.98 91.8813 74.7C91.8813 73.48 92.1913 72.37 92.8113 71.37C93.4313 70.37 94.2613 69.57 95.3013 68.97C96.3413 68.37 97.5013 68.07 98.7813 68.07C100.421 68.07 101.781 68.55 102.861 69.51C103.941 70.47 104.671 71.79 105.051 73.47L94.8213 77.07L94.1613 75.42L102.561 72.36L101.961 72.75C101.721 72.09 101.321 71.52 100.761 71.04C100.201 70.54 99.4713 70.29 98.5713 70.29C97.8113 70.29 97.1313 70.48 96.5313 70.86C95.9313 71.22 95.4613 71.72 95.1213 72.36C94.7813 73 94.6113 73.73 94.6113 74.55C94.6113 75.41 94.7913 76.17 95.1513 76.83C95.5113 77.47 96.0013 77.98 96.6213 78.36C97.2613 78.72 97.9813 78.9 98.7813 78.9C99.3213 78.9 99.8413 78.8 100.341 78.6C100.861 78.4 101.341 78.14 101.781 77.82L103.071 79.89C102.451 80.31 101.751 80.65 100.971 80.91C100.211 81.17 99.4613 81.3 98.7213 81.3ZM108.577 64.08L107.167 63.36C107.587 62.96 107.917 62.41 108.157 61.71C108.417 61.01 108.477 60.31 108.337 59.61L110.557 59.4C110.677 59.96 110.657 60.55 110.497 61.17C110.337 61.77 110.087 62.33 109.747 62.85C109.407 63.37 109.017 63.78 108.577 64.08ZM116.574 68.58L116.814 71.37L116.694 71.13C117.154 70.19 117.804 69.45 118.644 68.91C119.504 68.37 120.484 68.1 121.584 68.1C122.284 68.1 122.904 68.21 123.444 68.43C123.984 68.65 124.424 68.97 124.764 69.39C125.124 69.79 125.354 70.29 125.454 70.89L125.304 70.98C125.784 70.08 126.444 69.38 127.284 68.88C128.144 68.36 129.044 68.1 129.984 68.1C131.204 68.1 132.164 68.45 132.864 69.15C133.584 69.83 133.954 70.72 133.974 71.82V81H131.184V72.81C131.164 72.17 131.004 71.64 130.704 71.22C130.424 70.78 129.924 70.54 129.204 70.5C128.484 70.5 127.834 70.72 127.254 71.16C126.694 71.6 126.254 72.17 125.934 72.87C125.614 73.55 125.444 74.29 125.424 75.09V81H122.634V72.81C122.614 72.17 122.444 71.64 122.124 71.22C121.824 70.78 121.314 70.54 120.594 70.5C119.854 70.5 119.204 70.72 118.644 71.16C118.084 71.6 117.644 72.17 117.324 72.87C117.024 73.57 116.874 74.32 116.874 75.12V81H114.084V68.58H116.574ZM147.432 59.31H161.832V62.1H156.012V81H153.102V62.1H147.432V59.31ZM167.701 81.3C166.541 81.3 165.481 81.05 164.521 80.55C163.581 80.05 162.831 79.32 162.271 78.36C161.731 77.38 161.461 76.19 161.461 74.79C161.461 73.41 161.751 72.22 162.331 71.22C162.911 70.2 163.681 69.42 164.641 68.88C165.621 68.34 166.691 68.07 167.851 68.07C169.011 68.07 169.991 68.34 170.791 68.88C171.591 69.4 172.201 70.02 172.621 70.74L172.441 71.22L172.711 68.58H175.291V81H172.501V77.76L172.801 78.48C172.721 78.68 172.541 78.94 172.261 79.26C172.001 79.56 171.641 79.87 171.181 80.19C170.741 80.51 170.231 80.78 169.651 81C169.071 81.2 168.421 81.3 167.701 81.3ZM168.451 78.99C169.151 78.99 169.781 78.86 170.341 78.6C170.901 78.34 171.361 77.98 171.721 77.52C172.101 77.04 172.361 76.47 172.501 75.81V73.38C172.341 72.78 172.061 72.26 171.661 71.82C171.261 71.36 170.781 71.01 170.221 70.77C169.661 70.51 169.041 70.38 168.361 70.38C167.621 70.38 166.941 70.56 166.321 70.92C165.701 71.28 165.201 71.78 164.821 72.42C164.461 73.06 164.281 73.81 164.281 74.67C164.281 75.47 164.471 76.2 164.851 76.86C165.231 77.52 165.741 78.04 166.381 78.42C167.021 78.8 167.711 78.99 168.451 78.99ZM184.799 73.2L187.769 68.58H190.589L185.819 75.24L184.799 73.2ZM191.069 81H187.709L178.259 68.58H181.709L191.069 81ZM184.499 76.38L181.229 81H178.409L183.149 74.52L184.499 76.38ZM194.065 68.58H196.855V81H194.065V68.58ZM193.855 64.08C193.855 63.64 194.025 63.27 194.365 62.97C194.725 62.67 195.115 62.52 195.535 62.52C195.955 62.52 196.325 62.67 196.645 62.97C196.985 63.27 197.155 63.64 197.155 64.08C197.155 64.54 196.985 64.92 196.645 65.22C196.325 65.5 195.955 65.64 195.535 65.64C195.115 65.64 194.725 65.49 194.365 65.19C194.025 64.89 193.855 64.52 193.855 64.08Z" fill="black"/>
<path d="M79.48 86.97L77.653 86.1563L76.3999 88.97H79.48V86.97ZM87.67 68.58V66.58H86.3713L85.843 67.7663L87.67 68.58ZM90.25 68.58L92.0836 69.3787L93.3026 66.58H90.25V68.58ZM82.24 86.97V88.97H83.5504L84.0736 87.7687L82.24 86.97ZM82.54 81.09L80.735 81.9514L81.7131 84.001L83.6227 82.7716L82.54 81.09ZM76.57 68.58V66.58H73.3995L74.765 69.4414L76.57 68.58ZM79.72 68.58L81.5429 67.7572L81.0116 66.58H79.72V68.58ZM84.73 79.68L85.8127 81.3616L87.2621 80.4284L86.5529 78.8572L84.73 79.68ZM81.307 87.7837L89.497 69.3937L85.843 67.7663L77.653 86.1563L81.307 87.7837ZM87.67 70.58H90.25V66.58H87.67V70.58ZM88.4164 67.7813L80.4064 86.1713L84.0736 87.7687L92.0836 69.3787L88.4164 67.7813ZM82.24 84.97H79.48V88.97H82.24V84.97ZM84.345 80.2286L78.375 67.7186L74.765 69.4414L80.735 81.9514L84.345 80.2286ZM76.57 70.58H79.72V66.58H76.57V70.58ZM77.8971 69.4028L82.9071 80.5028L86.5529 78.8572L81.5429 67.7572L77.8971 69.4028ZM83.6473 77.9984L81.4573 79.4084L83.6227 82.7716L85.8127 81.3616L83.6473 77.9984ZM95.0613 80.46L94.0726 82.1986L94.0856 82.206L94.0987 82.2132L95.0613 80.46ZM92.6913 78.12L90.9314 79.0703L90.9429 79.0914L90.9548 79.1123L92.6913 78.12ZM92.8113 71.37L94.5111 72.4239L94.5111 72.4239L92.8113 71.37ZM102.861 69.51L101.533 71.0048L101.533 71.0048L102.861 69.51ZM105.051 73.47L105.715 75.3566L107.395 74.7655L107.002 73.0288L105.051 73.47ZM94.8213 77.07L92.9643 77.8128L93.6764 79.5931L95.4852 78.9566L94.8213 77.07ZM94.1613 75.42L93.4767 73.5408L91.538 74.247L92.3043 76.1628L94.1613 75.42ZM102.561 72.36L103.651 74.0369L101.877 70.4808L102.561 72.36ZM101.961 72.75L100.082 73.4335L100.942 75.7982L103.051 74.4269L101.961 72.75ZM100.761 71.04L99.4292 72.5319L99.4443 72.5453L99.4597 72.5585L100.761 71.04ZM96.5313 70.86L97.5602 72.575L97.581 72.5626L97.6014 72.5496L96.5313 70.86ZM95.1213 72.36L96.8875 73.2983L96.8875 73.2983L95.1213 72.36ZM95.1513 76.83L93.3955 77.7877L93.4017 77.7992L93.4081 77.8105L95.1513 76.83ZM96.6213 78.36L95.5761 80.0652L95.6081 80.0848L95.6407 80.1032L96.6213 78.36ZM100.341 78.6L99.6233 76.7333L99.6108 76.7381L99.5985 76.743L100.341 78.6ZM101.781 77.82L103.479 76.7622L102.342 74.9389L100.605 76.2025L101.781 77.82ZM103.071 79.89L104.193 81.5458L105.787 80.4661L104.769 78.8322L103.071 79.89ZM100.971 80.91L100.339 79.0126L100.331 79.0151L100.324 79.0177L100.971 80.91ZM98.7213 79.3C97.5642 79.3 96.6905 79.0729 96.0238 78.7068L94.0987 82.2132C95.472 82.9671 97.0383 83.3 98.7213 83.3V79.3ZM96.0499 78.7214C95.3286 78.3113 94.8026 77.7838 94.4277 77.1277L90.9548 79.1123C91.6999 80.4162 92.7539 81.4487 94.0726 82.1986L96.0499 78.7214ZM94.4511 77.1697C94.0877 76.4969 93.8813 75.6907 93.8813 74.7H89.8813C89.8813 76.2693 90.2148 77.7431 90.9314 79.0703L94.4511 77.1697ZM93.8813 74.7C93.8813 73.838 94.0948 73.0953 94.5111 72.4239L91.1114 70.3161C90.2878 71.6447 89.8813 73.122 89.8813 74.7H93.8813ZM94.5111 72.4239C94.9535 71.7103 95.5405 71.141 96.3007 70.7024L94.3018 67.2376C92.982 67.999 91.909 69.0297 91.1114 70.3161L94.5111 72.4239ZM96.3007 70.7024C97.0166 70.2893 97.8281 70.07 98.7813 70.07V66.07C97.1744 66.07 95.6659 66.4507 94.3018 67.2376L96.3007 70.7024ZM98.7813 70.07C100.002 70.07 100.868 70.4143 101.533 71.0048L104.19 68.0152C102.694 66.6857 100.84 66.07 98.7813 66.07V70.07ZM101.533 71.0048C102.244 71.6372 102.795 72.5586 103.101 73.9112L107.002 73.0288C106.548 71.0214 105.639 69.3028 104.19 68.0152L101.533 71.0048ZM104.387 71.5834L94.1573 75.1834L95.4852 78.9566L105.715 75.3566L104.387 71.5834ZM96.6782 76.3272L96.0182 74.6772L92.3043 76.1628L92.9643 77.8128L96.6782 76.3272ZM94.8458 77.2992L103.246 74.2392L101.877 70.4808L93.4767 73.5408L94.8458 77.2992ZM101.471 70.6831L100.871 71.0731L103.051 74.4269L103.651 74.0369L101.471 70.6831ZM103.841 72.0665C103.477 71.0666 102.871 70.2138 102.063 69.5215L99.4597 72.5585C99.772 72.8262 99.9653 73.1134 100.082 73.4335L103.841 72.0665ZM102.093 69.5481C101.097 68.6583 99.8598 68.29 98.5713 68.29V72.29C99.0827 72.29 99.3058 72.4217 99.4292 72.5319L102.093 69.5481ZM98.5713 68.29C97.4601 68.29 96.4039 68.5733 95.4611 69.1704L97.6014 72.5496C97.8586 72.3867 98.1624 72.29 98.5713 72.29V68.29ZM95.5023 69.145C94.579 69.699 93.8592 70.4726 93.355 71.4217L96.8875 73.2983C97.0633 72.9674 97.2835 72.741 97.5602 72.575L95.5023 69.145ZM93.355 71.4217C92.8423 72.3868 92.6113 73.4464 92.6113 74.55H96.6113C96.6113 74.0136 96.7202 73.6132 96.8875 73.2983L93.355 71.4217ZM92.6113 74.55C92.6113 75.696 92.8534 76.794 93.3955 77.7877L96.907 75.8723C96.7291 75.546 96.6113 75.124 96.6113 74.55H92.6113ZM93.4081 77.8105C93.9335 78.7446 94.6625 79.5053 95.5761 80.0652L97.6664 76.6548C97.34 76.4547 97.089 76.1954 96.8944 75.8495L93.4081 77.8105ZM95.6407 80.1032C96.6065 80.6464 97.6694 80.9 98.7813 80.9V76.9C98.2931 76.9 97.916 76.7936 97.6018 76.6168L95.6407 80.1032ZM98.7813 80.9C99.575 80.9 100.347 80.7517 101.084 80.457L99.5985 76.743C99.3354 76.8483 99.0675 76.9 98.7813 76.9V80.9ZM101.059 80.4667C101.738 80.2055 102.373 79.8627 102.958 79.4375L100.605 76.2025C100.31 76.4173 99.9842 76.5945 99.6233 76.7333L101.059 80.4667ZM100.084 78.8778L101.374 80.9478L104.769 78.8322L103.479 76.7622L100.084 78.8778ZM101.95 78.2342C101.495 78.5422 100.962 78.8048 100.339 79.0126L101.604 82.8074C102.54 82.4952 103.408 82.0778 104.193 81.5458L101.95 78.2342ZM100.324 79.0177C99.7545 79.2125 99.223 79.3 98.7213 79.3V83.3C99.6995 83.3 100.668 83.1275 101.619 82.8023L100.324 79.0177ZM108.577 64.08L107.668 65.8612L108.724 66.4006L109.704 65.7325L108.577 64.08ZM107.167 63.36L105.788 61.9117L103.744 63.8579L106.258 65.1412L107.167 63.36ZM108.157 61.71L106.282 61.0136L106.274 61.0374L106.265 61.0613L108.157 61.71ZM108.337 59.61L108.149 57.6189L105.941 57.8277L106.376 60.0022L108.337 59.61ZM110.557 59.4L112.513 58.9809L112.14 57.2413L110.369 57.4089L110.557 59.4ZM110.497 61.17L112.43 61.6853L112.432 61.6775L112.434 61.6698L110.497 61.17ZM109.747 62.85L111.421 63.9445L111.421 63.9445L109.747 62.85ZM109.487 62.2988L108.077 61.5788L106.258 65.1412L107.668 65.8612L109.487 62.2988ZM108.547 64.8083C109.254 64.1341 109.733 63.2809 110.049 62.3586L106.265 61.0613C106.102 61.5391 105.92 61.7859 105.788 61.9117L108.547 64.8083ZM110.032 62.4064C110.415 61.3753 110.515 60.2988 110.298 59.2178L106.376 60.0022C106.44 60.3212 106.419 60.6447 106.282 61.0136L110.032 62.4064ZM108.526 61.6011L110.746 61.3911L110.369 57.4089L108.149 57.6189L108.526 61.6011ZM108.602 59.8191C108.649 60.0412 108.652 60.315 108.561 60.6702L112.434 61.6698C112.662 60.785 112.705 59.8788 112.513 58.9809L108.602 59.8191ZM108.565 60.6547C108.46 61.049 108.297 61.4135 108.073 61.7555L111.421 63.9445C111.878 63.2465 112.215 62.491 112.43 61.6853L108.565 60.6547ZM108.073 61.7555C107.854 62.0915 107.64 62.2983 107.451 62.4275L109.704 65.7325C110.394 65.2617 110.961 64.6485 111.421 63.9445L108.073 61.7555ZM116.574 68.58L118.567 68.4086L118.41 66.58H116.574V68.58ZM116.814 71.37L115.025 72.2644L118.807 71.1986L116.814 71.37ZM116.694 71.13L114.898 70.2509L114.463 71.1395L114.905 72.0244L116.694 71.13ZM118.644 68.91L117.581 67.2162L117.572 67.2219L117.563 67.2276L118.644 68.91ZM123.444 68.43L124.199 66.5778L124.199 66.5778L123.444 68.43ZM124.764 69.39L123.21 70.6484L123.243 70.689L123.278 70.7279L124.764 69.39ZM125.454 70.89L126.483 72.605L127.651 71.9044L127.427 70.5612L125.454 70.89ZM125.304 70.98L123.54 70.0388L120.142 76.41L126.333 72.695L125.304 70.98ZM127.284 68.88L128.307 70.5986L128.319 70.5915L127.284 68.88ZM132.864 69.15L131.45 70.5642L131.47 70.5844L131.491 70.604L132.864 69.15ZM133.974 71.82H135.974V71.8018L135.974 71.7836L133.974 71.82ZM133.974 81V83H135.974V81H133.974ZM131.184 81H129.184V83H131.184V81ZM131.184 72.81H133.184V72.7788L133.183 72.7475L131.184 72.81ZM130.704 71.22L129.017 72.2937L129.046 72.3389L129.077 72.3825L130.704 71.22ZM129.204 70.5L129.315 68.5031L129.26 68.5H129.204V70.5ZM127.254 71.16L126.046 69.5666L126.032 69.5769L126.019 69.5874L127.254 71.16ZM125.934 72.87L127.744 73.7216L127.749 73.7116L127.753 73.7015L125.934 72.87ZM125.424 75.09L123.425 75.04L123.424 75.065V75.09H125.424ZM125.424 81V83H127.424V81H125.424ZM122.634 81H120.634V83H122.634V81ZM122.634 72.81H124.634V72.7788L124.633 72.7475L122.634 72.81ZM122.124 71.22L120.472 72.3467L120.502 72.3902L120.533 72.4321L122.124 71.22ZM120.594 70.5L120.705 68.5031L120.65 68.5H120.594V70.5ZM118.644 71.16L119.88 72.7326L119.88 72.7326L118.644 71.16ZM117.324 72.87L115.505 72.0385L115.495 72.0602L115.486 72.0822L117.324 72.87ZM116.874 81V83H118.874V81H116.874ZM114.084 81H112.084V83H114.084V81ZM114.084 68.58V66.58H112.084V68.58H114.084ZM114.582 68.7514L114.822 71.5414L118.807 71.1986L118.567 68.4086L114.582 68.7514ZM118.603 70.4756L118.483 70.2356L114.905 72.0244L115.025 72.2644L118.603 70.4756ZM118.491 72.0091C118.798 71.3806 119.208 70.9252 119.726 70.5924L117.563 67.2276C116.401 67.9748 115.51 68.9994 114.898 70.2509L118.491 72.0091ZM119.708 70.6038C120.223 70.2805 120.828 70.1 121.584 70.1V66.1C120.141 66.1 118.786 66.4595 117.581 67.2162L119.708 70.6038ZM121.584 70.1C122.076 70.1 122.432 70.1773 122.69 70.2822L124.199 66.5778C123.376 66.2427 122.492 66.1 121.584 66.1V70.1ZM122.69 70.2822C122.943 70.3852 123.099 70.5112 123.21 70.6484L126.319 68.1316C125.75 67.4288 125.026 66.9148 124.199 66.5778L122.69 70.2822ZM123.278 70.7279C123.351 70.809 123.436 70.9442 123.482 71.2188L127.427 70.5612C127.273 69.6358 126.898 68.771 126.251 68.0521L123.278 70.7279ZM124.425 69.175L124.275 69.265L126.333 72.695L126.483 72.605L124.425 69.175ZM127.069 71.9212C127.385 71.3285 127.795 70.9037 128.307 70.5986L126.261 67.1614C125.094 67.8563 124.183 68.8315 123.54 70.0388L127.069 71.9212ZM128.319 70.5915C128.889 70.2467 129.434 70.1 129.984 70.1V66.1C128.654 66.1 127.399 66.4733 126.249 67.1685L128.319 70.5915ZM129.984 70.1C130.805 70.1 131.209 70.3226 131.45 70.5642L134.279 67.7358C133.12 66.5774 131.604 66.1 129.984 66.1V70.1ZM131.491 70.604C131.775 70.8722 131.963 71.2284 131.975 71.8564L135.974 71.7836C135.945 70.2116 135.394 68.7878 134.238 67.696L131.491 70.604ZM131.974 71.82V81H135.974V71.82H131.974ZM133.974 79H131.184V83H133.974V79ZM133.184 81V72.81H129.184V81H133.184ZM133.183 72.7475C133.154 71.8077 132.912 70.8692 132.332 70.0575L129.077 72.3825C129.097 72.4108 129.175 72.5323 129.185 72.8725L133.183 72.7475ZM132.392 70.1462C131.644 68.9714 130.413 68.5641 129.315 68.5031L129.093 72.4969C129.266 72.5065 129.3 72.535 129.254 72.513C129.228 72.5008 129.186 72.4765 129.139 72.435C129.091 72.3931 129.049 72.3442 129.017 72.2937L132.392 70.1462ZM129.204 68.5C128.043 68.5 126.969 68.866 126.046 69.5666L128.463 72.7534C128.7 72.574 128.926 72.5 129.204 72.5V68.5ZM126.019 69.5874C125.188 70.24 124.557 71.0724 124.115 72.0385L127.753 73.7015C127.952 73.2676 128.201 72.96 128.49 72.7326L126.019 69.5874ZM124.125 72.0184C123.679 72.9656 123.451 73.9808 123.425 75.04L127.424 75.14C127.437 74.5992 127.55 74.1344 127.744 73.7216L124.125 72.0184ZM123.424 75.09V81H127.424V75.09H123.424ZM125.424 79H122.634V83H125.424V79ZM124.634 81V72.81H120.634V81H124.634ZM124.633 72.7475C124.603 71.7814 124.337 70.8245 123.715 70.0079L120.533 72.4321C120.551 72.4555 120.625 72.5586 120.635 72.8725L124.633 72.7475ZM123.777 70.0933C123.012 68.971 121.81 68.5645 120.705 68.5031L120.483 72.4969C120.655 72.5065 120.698 72.535 120.665 72.5196C120.647 72.511 120.613 72.4923 120.574 72.4593C120.534 72.4258 120.499 72.3868 120.472 72.3467L123.777 70.0933ZM120.594 68.5C119.425 68.5 118.336 68.8591 117.409 69.5874L119.88 72.7326C120.073 72.5809 120.284 72.5 120.594 72.5V68.5ZM117.409 69.5874C116.578 70.24 115.947 71.0724 115.505 72.0385L119.143 73.7015C119.342 73.2676 119.591 72.96 119.88 72.7326L117.409 69.5874ZM115.486 72.0822C115.074 73.0436 114.874 74.0631 114.874 75.12H118.874C118.874 74.5769 118.975 74.0964 119.163 73.6578L115.486 72.0822ZM114.874 75.12V81H118.874V75.12H114.874ZM116.874 79H114.084V83H116.874V79ZM116.084 81V68.58H112.084V81H116.084ZM114.084 70.58H116.574V66.58H114.084V70.58ZM147.432 59.31V57.31H145.432V59.31H147.432ZM161.832 59.31H163.832V57.31H161.832V59.31ZM161.832 62.1V64.1H163.832V62.1H161.832ZM156.012 62.1V60.1H154.012V62.1H156.012ZM156.012 81V83H158.012V81H156.012ZM153.102 81H151.102V83H153.102V81ZM153.102 62.1H155.102V60.1H153.102V62.1ZM147.432 62.1H145.432V64.1H147.432V62.1ZM147.432 61.31H161.832V57.31H147.432V61.31ZM159.832 59.31V62.1H163.832V59.31H159.832ZM161.832 60.1H156.012V64.1H161.832V60.1ZM154.012 62.1V81H158.012V62.1H154.012ZM156.012 79H153.102V83H156.012V79ZM155.102 81V62.1H151.102V81H155.102ZM153.102 60.1H147.432V64.1H153.102V60.1ZM149.432 62.1V59.31H145.432V62.1H149.432ZM164.521 80.55L163.582 82.3157L163.59 82.3198L163.597 82.3238L164.521 80.55ZM162.271 78.36L160.52 79.3252L160.531 79.3466L160.544 79.3677L162.271 78.36ZM162.331 71.22L164.061 72.2234L164.066 72.216L164.07 72.2086L162.331 71.22ZM164.641 68.88L163.676 67.1283L163.668 67.1326L163.661 67.1368L164.641 68.88ZM170.791 68.88L169.672 70.5377L169.687 70.5474L169.701 70.5569L170.791 68.88ZM172.621 70.74L174.494 71.4422L174.828 70.5528L174.349 69.7323L172.621 70.74ZM172.441 71.22L170.452 71.0165L174.314 71.9222L172.441 71.22ZM172.711 68.58V66.58H170.905L170.722 68.3765L172.711 68.58ZM175.291 68.58H177.291V66.58H175.291V68.58ZM175.291 81V83H177.291V81H175.291ZM172.501 81H170.501V83H172.501V81ZM172.501 77.76L174.347 76.9908L170.501 77.76H172.501ZM172.801 78.48L174.658 79.2228L174.962 78.4646L174.647 77.7108L172.801 78.48ZM172.261 79.26L170.756 77.943L170.75 77.9501L172.261 79.26ZM171.181 80.19L170.039 78.5482L170.022 78.5602L170.005 78.5725L171.181 80.19ZM169.651 81L170.303 82.8907L170.332 82.8808L170.361 82.87L169.651 81ZM170.341 78.6L169.499 76.786L169.499 76.786L170.341 78.6ZM171.721 77.52L170.153 76.2786L170.146 76.2874L171.721 77.52ZM172.501 75.81L174.458 76.225L174.501 76.0198V75.81H172.501ZM172.501 73.38H174.501V73.1179L174.434 72.8647L172.501 73.38ZM171.661 71.82L170.152 73.1324L170.167 73.149L170.181 73.1653L171.661 71.82ZM170.221 70.77L169.379 72.584L169.406 72.5966L169.433 72.6083L170.221 70.77ZM166.321 70.92L165.317 69.1904L165.317 69.1904L166.321 70.92ZM164.821 72.42L163.102 71.3989L163.09 71.4191L163.078 71.4395L164.821 72.42ZM164.851 76.86L166.585 75.8621L166.585 75.8621L164.851 76.86ZM167.701 79.3C166.839 79.3 166.1 79.117 165.445 78.7762L163.597 82.3238C164.863 82.983 166.243 83.3 167.701 83.3V79.3ZM165.461 78.7843C164.863 78.4666 164.38 78.006 163.999 77.3523L160.544 79.3677C161.282 80.634 162.299 81.6334 163.582 82.3157L165.461 78.7843ZM164.023 77.3948C163.682 76.7758 163.461 75.9359 163.461 74.79H159.461C159.461 76.4441 159.781 77.9842 160.52 79.3252L164.023 77.3948ZM163.461 74.79C163.461 73.6939 163.69 72.8643 164.061 72.2234L160.601 70.2166C159.813 71.5756 159.461 73.1261 159.461 74.79H163.461ZM164.07 72.2086C164.483 71.4828 164.999 70.9734 165.622 70.6231L163.661 67.1368C162.363 67.8666 161.34 68.9172 160.593 70.2314L164.07 72.2086ZM165.607 70.6317C166.28 70.2607 167.016 70.07 167.851 70.07V66.07C166.367 66.07 164.963 66.4193 163.676 67.1283L165.607 70.6317ZM167.851 70.07C168.694 70.07 169.265 70.2625 169.672 70.5377L171.91 67.2223C170.718 66.4175 169.328 66.07 167.851 66.07V70.07ZM169.701 70.5569C170.278 70.9314 170.653 71.3342 170.894 71.7477L174.349 69.7323C173.75 68.7058 172.905 67.8686 171.881 67.2031L169.701 70.5569ZM170.749 70.0378L170.569 70.5178L174.314 71.9222L174.494 71.4422L170.749 70.0378ZM174.431 71.4235L174.701 68.7835L170.722 68.3765L170.452 71.0165L174.431 71.4235ZM172.711 70.58H175.291V66.58H172.711V70.58ZM173.291 68.58V81H177.291V68.58H173.291ZM175.291 79H172.501V83H175.291V79ZM174.501 81V77.76H170.501V81H174.501ZM170.655 78.5292L170.955 79.2492L174.647 77.7108L174.347 76.9908L170.655 78.5292ZM170.944 77.7372C170.964 77.6882 170.979 77.6607 170.981 77.6571C170.984 77.6527 170.979 77.6622 170.962 77.6866C170.927 77.7375 170.862 77.8219 170.756 77.943L173.766 80.577C174.08 80.2192 174.447 79.75 174.658 79.2228L170.944 77.7372ZM170.75 77.9501C170.633 78.0849 170.414 78.2875 170.039 78.5482L172.323 81.8318C172.869 81.4525 173.37 81.0351 173.773 80.5699L170.75 77.9501ZM170.005 78.5725C169.727 78.7745 169.379 78.9644 168.942 79.13L170.361 82.87C171.084 82.5956 171.755 82.2455 172.358 81.8075L170.005 78.5725ZM168.999 79.1093C168.662 79.2256 168.237 79.3 167.701 79.3V83.3C168.606 83.3 169.481 83.1744 170.303 82.8907L168.999 79.1093ZM168.451 80.99C169.403 80.99 170.326 80.8119 171.184 80.414L169.499 76.786C169.236 76.9081 168.899 76.99 168.451 76.99V80.99ZM171.184 80.414C172.014 80.0287 172.73 79.4758 173.296 78.7526L170.146 76.2874C169.992 76.4842 169.789 76.6513 169.499 76.786L171.184 80.414ZM173.289 78.7614C173.88 78.0157 174.26 77.1555 174.458 76.225L170.545 75.395C170.462 75.7845 170.323 76.0643 170.153 76.2786L173.289 78.7614ZM174.501 75.81V73.38H170.501V75.81H174.501ZM174.434 72.8647C174.195 71.9699 173.766 71.1618 173.141 70.4747L170.181 73.1653C170.357 73.3582 170.487 73.5901 170.569 73.8953L174.434 72.8647ZM173.171 70.5076C172.573 69.8203 171.846 69.2905 171.009 68.9317L169.433 72.6083C169.716 72.7295 169.95 72.8997 170.152 73.1324L173.171 70.5076ZM171.064 68.956C170.214 68.5615 169.302 68.38 168.361 68.38V72.38C168.78 72.38 169.109 72.4585 169.379 72.584L171.064 68.956ZM168.361 68.38C167.28 68.38 166.252 68.6474 165.317 69.1904L167.326 72.6496C167.63 72.4726 167.962 72.38 168.361 72.38V68.38ZM165.317 69.1904C164.391 69.7284 163.649 70.4773 163.102 71.3989L166.541 73.4411C166.754 73.0827 167.012 72.8316 167.326 72.6496L165.317 69.1904ZM163.078 71.4395C162.523 72.4265 162.281 73.5257 162.281 74.67H166.281C166.281 74.0943 166.4 73.6935 166.564 73.4005L163.078 71.4395ZM162.281 74.67C162.281 75.8019 162.554 76.8788 163.118 77.8579L166.585 75.8621C166.388 75.5212 166.281 75.1381 166.281 74.67H162.281ZM163.118 77.8579C163.665 78.8085 164.418 79.5801 165.36 80.1397L167.402 76.7003C167.065 76.4999 166.797 76.2315 166.585 75.8621L163.118 77.8579ZM165.36 80.1397C166.307 80.702 167.35 80.99 168.451 80.99V76.99C168.073 76.99 167.735 76.898 167.402 76.7003L165.36 80.1397ZM184.799 73.2L183.117 72.1185L182.501 73.0761L183.011 74.0944L184.799 73.2ZM187.769 68.58V66.58H186.678L186.087 67.4985L187.769 68.58ZM190.589 68.58L192.215 69.7446L194.482 66.58H190.589V68.58ZM185.819 75.24L184.031 76.1344L185.514 79.1013L187.445 76.4046L185.819 75.24ZM191.069 81V83H195.081L192.667 79.7963L191.069 81ZM187.709 81L186.118 82.211L186.718 83H187.709V81ZM178.259 68.58V66.58H174.225L176.668 69.791L178.259 68.58ZM181.709 68.58L183.307 67.3763L182.707 66.58H181.709V68.58ZM184.499 76.38L186.132 77.5354L186.96 76.3654L186.118 75.2052L184.499 76.38ZM181.229 81V83H182.264L182.862 82.1554L181.229 81ZM178.409 81L176.795 79.8192L174.469 83H178.409V81ZM183.149 74.52L184.768 73.3452L183.156 71.1238L181.535 73.3392L183.149 74.52ZM186.482 74.2815L189.452 69.6615L186.087 67.4985L183.117 72.1185L186.482 74.2815ZM187.769 70.58H190.589V66.58H187.769V70.58ZM188.963 67.4154L184.193 74.0754L187.445 76.4046L192.215 69.7446L188.963 67.4154ZM187.608 74.3456L186.588 72.3056L183.011 74.0944L184.031 76.1344L187.608 74.3456ZM191.069 79H187.709V83H191.069V79ZM189.301 79.789L179.851 67.369L176.668 69.791L186.118 82.211L189.301 79.789ZM178.259 70.58H181.709V66.58H178.259V70.58ZM180.112 69.7837L189.472 82.2037L192.667 79.7963L183.307 67.3763L180.112 69.7837ZM182.867 75.2246L179.597 79.8446L182.862 82.1554L186.132 77.5354L182.867 75.2246ZM181.229 79H178.409V83H181.229V79ZM180.024 82.1808L184.764 75.7008L181.535 73.3392L176.795 79.8192L180.024 82.1808ZM181.531 75.6948L182.881 77.5548L186.118 75.2052L184.768 73.3452L181.531 75.6948ZM194.065 68.58V66.58H192.065V68.58H194.065ZM196.855 68.58H198.855V66.58H196.855V68.58ZM196.855 81V83H198.855V81H196.855ZM194.065 81H192.065V83H194.065V81ZM194.365 62.97L193.084 61.4336L193.063 61.4516L193.042 61.4703L194.365 62.97ZM196.645 62.97L195.277 64.4291L195.299 64.4497L195.322 64.4697L196.645 62.97ZM196.645 65.22L197.962 66.7252L197.968 66.7197L196.645 65.22ZM194.365 65.19L193.042 66.6897L193.063 66.7084L193.084 66.7264L194.365 65.19ZM194.065 70.58H196.855V66.58H194.065V70.58ZM194.855 68.58V81H198.855V68.58H194.855ZM196.855 79H194.065V83H196.855V79ZM196.065 81V68.58H192.065V81H196.065ZM195.855 64.08C195.855 64.1247 195.844 64.21 195.8 64.3075C195.756 64.4035 195.703 64.4561 195.688 64.4697L193.042 61.4703C192.286 62.1368 191.855 63.0465 191.855 64.08H195.855ZM195.645 64.5064C195.677 64.4797 195.678 64.4867 195.645 64.4992C195.63 64.5051 195.611 64.5108 195.59 64.5147C195.568 64.5186 195.55 64.52 195.535 64.52V60.52C194.592 60.52 193.76 60.871 193.084 61.4336L195.645 64.5064ZM195.535 64.52C195.501 64.52 195.442 64.5127 195.376 64.486C195.345 64.4737 195.321 64.4601 195.303 64.4483C195.285 64.4368 195.277 64.4289 195.277 64.4291L198.013 61.5109C197.34 60.8804 196.487 60.52 195.535 60.52V64.52ZM195.322 64.4697C195.306 64.4561 195.254 64.4035 195.21 64.3075C195.165 64.21 195.155 64.1247 195.155 64.08H199.155C199.155 63.0465 198.723 62.1368 197.968 61.4703L195.322 64.4697ZM195.155 64.08C195.155 64.0583 195.16 63.986 195.202 63.8933C195.243 63.7998 195.297 63.7424 195.322 63.7203L197.968 66.7197C198.745 66.0338 199.155 65.1043 199.155 64.08H195.155ZM195.328 63.7148C195.334 63.7095 195.365 63.685 195.419 63.6644C195.474 63.6437 195.518 63.64 195.535 63.64V67.64C196.446 67.64 197.282 67.3198 197.962 66.7252L195.328 63.7148ZM195.535 63.64C195.55 63.64 195.568 63.6414 195.59 63.6453C195.611 63.6492 195.63 63.6549 195.645 63.6608C195.678 63.6733 195.677 63.6803 195.645 63.6536L193.084 66.7264C193.76 67.289 194.592 67.64 195.535 67.64V63.64ZM195.688 63.6903C195.703 63.7039 195.756 63.7565 195.8 63.8525C195.844 63.95 195.855 64.0353 195.855 64.08H191.855C191.855 65.1135 192.286 66.0232 193.042 66.6897L195.688 63.6903Z" fill="#FECB00" mask="url(#path-1-outside-1_318_258)"/>
<mask id="path-3-outside-2_318_258" maskUnits="userSpaceOnUse" x="7" y="33" width="62" height="60" fill="black">
<rect fill="white" x="7" y="33" width="62" height="60"/>
<path d="M38.44 91.44C32.04 91.44 26.6 90.24 22.12 87.84C17.72 85.44 14.36 82.12 12.04 77.88C9.72 73.64 8.56 68.76 8.56 63.24C8.56 57.96 9.92 53.2 12.64 48.96C15.36 44.72 19 41.36 23.56 38.88C28.12 36.32 33.2 35.04 38.8 35.04C46.32 35.04 52.48 37.24 57.28 41.64C62.16 45.96 65.32 52.24 66.76 60.48L25.96 73.44L22.24 64.32L51.76 54.36L48.28 55.92C47.64 53.84 46.48 52.04 44.8 50.52C43.2 48.92 40.76 48.12 37.48 48.12C35 48.12 32.8 48.72 30.88 49.92C29.04 51.04 27.6 52.68 26.56 54.84C25.6 56.92 25.12 59.4 25.12 62.28C25.12 65.56 25.72 68.32 26.92 70.56C28.12 72.72 29.76 74.36 31.84 75.48C33.92 76.6 36.24 77.16 38.8 77.16C40.64 77.16 42.4 76.84 44.08 76.2C45.84 75.56 47.56 74.72 49.24 73.68L56.68 86.16C53.88 87.76 50.84 89.04 47.56 90C44.36 90.96 41.32 91.44 38.44 91.44Z"/>
</mask>
<path d="M38.44 91.44C32.04 91.44 26.6 90.24 22.12 87.84C17.72 85.44 14.36 82.12 12.04 77.88C9.72 73.64 8.56 68.76 8.56 63.24C8.56 57.96 9.92 53.2 12.64 48.96C15.36 44.72 19 41.36 23.56 38.88C28.12 36.32 33.2 35.04 38.8 35.04C46.32 35.04 52.48 37.24 57.28 41.64C62.16 45.96 65.32 52.24 66.76 60.48L25.96 73.44L22.24 64.32L51.76 54.36L48.28 55.92C47.64 53.84 46.48 52.04 44.8 50.52C43.2 48.92 40.76 48.12 37.48 48.12C35 48.12 32.8 48.72 30.88 49.92C29.04 51.04 27.6 52.68 26.56 54.84C25.6 56.92 25.12 59.4 25.12 62.28C25.12 65.56 25.72 68.32 26.92 70.56C28.12 72.72 29.76 74.36 31.84 75.48C33.92 76.6 36.24 77.16 38.8 77.16C40.64 77.16 42.4 76.84 44.08 76.2C45.84 75.56 47.56 74.72 49.24 73.68L56.68 86.16C53.88 87.76 50.84 89.04 47.56 90C44.36 90.96 41.32 91.44 38.44 91.44Z" fill="#FECB00"/>
<path d="M22.12 87.84L21.4017 89.1569L21.4117 89.1622L22.12 87.84ZM12.04 77.88L10.7241 78.6L10.7241 78.6L12.04 77.88ZM23.56 38.88L24.2767 40.1977L24.2855 40.1929L24.2943 40.188L23.56 38.88ZM57.28 41.64L56.2664 42.7457L56.276 42.7545L56.2857 42.7631L57.28 41.64ZM66.76 60.48L67.2141 61.9096L68.4632 61.5128L68.2376 60.2218L66.76 60.48ZM25.96 73.44L24.5711 74.0065L25.0942 75.2889L26.4141 74.8696L25.96 73.44ZM22.24 64.32L21.7605 62.8987L20.2484 63.4089L20.8511 64.8865L22.24 64.32ZM51.76 54.36L52.3736 55.7288L51.2805 52.9387L51.76 54.36ZM48.28 55.92L46.8463 56.3611L47.3453 57.9828L48.8936 57.2888L48.28 55.92ZM44.8 50.52L43.7393 51.5807L43.7658 51.6072L43.7936 51.6323L44.8 50.52ZM30.88 49.92L31.6599 51.2013L31.6675 51.1967L31.675 51.192L30.88 49.92ZM26.56 54.84L25.2085 54.1893L25.2032 54.2003L25.1981 54.2114L26.56 54.84ZM26.92 70.56L25.5978 71.2683L25.6032 71.2784L25.6088 71.2885L26.92 70.56ZM31.84 75.48L31.1289 76.8007L31.1289 76.8007L31.84 75.48ZM44.08 76.2L43.5674 74.7903L43.5567 74.7942L43.546 74.7983L44.08 76.2ZM49.24 73.68L50.5284 72.9119L49.7474 71.6018L48.4505 72.4046L49.24 73.68ZM56.68 86.16L57.4242 87.4624L58.7508 86.7043L57.9684 85.3919L56.68 86.16ZM47.56 90L47.1386 88.5604L47.129 88.5633L47.56 90ZM38.44 89.94C32.2244 89.94 27.0411 88.7746 22.8283 86.5178L21.4117 89.1622C26.1589 91.7054 31.8556 92.94 38.44 92.94V89.94ZM22.8383 86.5232C18.6807 84.2554 15.5327 81.1383 13.3559 77.16L10.7241 78.6C13.1873 83.1017 16.7593 86.6246 21.4017 89.1568L22.8383 86.5232ZM13.3559 77.16C11.1729 73.1704 10.06 68.5445 10.06 63.24H7.06C7.06 68.9755 8.26706 74.1096 10.7241 78.6L13.3559 77.16ZM10.06 63.24C10.06 58.2326 11.3452 53.7563 13.9025 49.7699L11.3775 48.1501C8.49475 52.6437 7.06 57.6874 7.06 63.24H10.06ZM13.9025 49.7699C16.482 45.7491 19.9314 42.5609 24.2767 40.1977L22.8433 37.5623C18.0686 40.1591 14.238 43.6909 11.3775 48.1501L13.9025 49.7699ZM24.2943 40.188C28.6142 37.7628 33.4384 36.54 38.8 36.54V33.54C32.9616 33.54 27.6258 34.8772 22.8257 37.572L24.2943 40.188ZM38.8 36.54C46.0068 36.54 51.7857 38.6384 56.2664 42.7457L58.2936 40.5343C53.1743 35.8416 46.6332 33.54 38.8 33.54V36.54ZM56.2857 42.7631C60.8467 46.8007 63.8841 52.7368 65.2824 60.7382L68.2376 60.2218C66.7559 51.7432 63.4733 45.1193 58.2743 40.5169L56.2857 42.7631ZM66.3059 59.0504L25.5059 72.0104L26.4141 74.8696L67.2141 61.9096L66.3059 59.0504ZM27.3489 72.8735L23.6289 63.7535L20.8511 64.8865L24.5711 74.0065L27.3489 72.8735ZM22.7195 65.7413L52.2395 55.7813L51.2805 52.9387L21.7605 62.8987L22.7195 65.7413ZM51.1464 52.9912L47.6664 54.5512L48.8936 57.2888L52.3736 55.7288L51.1464 52.9912ZM49.7137 55.4789C48.9909 53.1299 47.678 51.1011 45.8064 49.4077L43.7936 51.6323C45.282 52.9789 46.2891 54.5501 46.8463 56.3611L49.7137 55.4789ZM45.8607 49.4593C43.874 47.4726 40.9787 46.62 37.48 46.62V49.62C40.5413 49.62 42.526 50.3674 43.7393 51.5807L45.8607 49.4593ZM37.48 46.62C34.7466 46.62 32.2659 47.2849 30.085 48.648L31.675 51.192C33.3341 50.1551 35.2534 49.62 37.48 49.62V46.62ZM30.1001 48.6387C27.9853 49.926 26.3595 51.7988 25.2085 54.1893L27.9115 55.4907C28.8405 53.5612 30.0947 52.154 31.6599 51.2013L30.1001 48.6387ZM25.1981 54.2114C24.1269 56.5323 23.62 59.2371 23.62 62.28H26.62C26.62 59.5629 27.0731 57.3076 27.9219 55.4686L25.1981 54.2114ZM23.62 62.28C23.62 65.7373 24.252 68.7563 25.5978 71.2683L28.2422 69.8517C27.188 67.8837 26.62 65.3827 26.62 62.28H23.62ZM25.6088 71.2885C26.9413 73.6871 28.7844 75.5383 31.1289 76.8007L32.5512 74.1593C30.7356 73.1817 29.2987 71.7529 28.2312 69.8315L25.6088 71.2885ZM31.1289 76.8007C33.4454 78.0481 36.0131 78.66 38.8 78.66V75.66C36.4669 75.66 34.3946 75.1519 32.5512 74.1593L31.1289 76.8007ZM38.8 78.66C40.8181 78.66 42.7594 78.3082 44.614 77.6017L43.546 74.7983C42.0406 75.3718 40.4619 75.66 38.8 75.66V78.66ZM44.5926 77.6097C46.4544 76.9327 48.2669 76.0466 50.0295 74.9554L48.4505 72.4046C46.8531 73.3934 45.2256 74.1873 43.5674 74.7903L44.5926 77.6097ZM47.9516 74.4481L55.3916 86.9281L57.9684 85.3919L50.5284 72.9119L47.9516 74.4481ZM55.9358 84.8576C53.2436 86.3961 50.3127 87.6314 47.1387 88.5604L47.9814 91.4396C51.3673 90.4486 54.5164 89.1239 57.4242 87.4624L55.9358 84.8576ZM47.129 88.5633C44.047 89.4879 41.1529 89.94 38.44 89.94V92.94C41.4872 92.94 44.673 92.4321 47.991 91.4367L47.129 88.5633Z" fill="black" mask="url(#path-3-outside-2_318_258)"/>
<rect x="1.03535" y="21.4666" width="6.3" height="16.5" rx="3.15" transform="rotate(-32.4586 1.03535 21.4666)" fill="#FECB00"/>
<rect x="1.03535" y="21.4666" width="6.3" height="16.5" rx="3.15" transform="rotate(-32.4586 1.03535 21.4666)" stroke="black" stroke-width="1.5"/>
<rect x="30.6002" y="10.7509" width="6.3" height="16.5" rx="3.15" fill="#FECB00"/>
<rect x="30.6002" y="10.7509" width="6.3" height="16.5" rx="3.15" stroke="black" stroke-width="1.5"/>
<rect x="59.3727" y="14.7491" width="6.3" height="16.5" rx="3.15" transform="rotate(25.3849 59.3727 14.7491)" fill="#FECB00"/>
<rect x="59.3727" y="14.7491" width="6.3" height="16.5" rx="3.15" transform="rotate(25.3849 59.3727 14.7491)" stroke="black" stroke-width="1.5"/>
<rect x="29.4" y="48.4" width="11.7754" height="11.7754" rx="5.88769" fill="black"/>
<rect x="29.4" y="48.4" width="11.7754" height="11.7754" rx="5.88769" stroke="#FECB00" stroke-width="0.8"/>
<path d="M65.4947 66.0538L63.0253 62.7789C62.9834 62.7234 63.0096 62.6431 63.0762 62.623L65.7886 61.8035C65.8552 61.7834 65.9215 61.8357 65.9174 61.9052L65.6744 65.9995C65.6725 66.0311 65.663 66.0472 65.6546 66.0572C65.6441 66.0698 65.6267 66.0823 65.6035 66.0893C65.5802 66.0964 65.5589 66.0955 65.5431 66.0909C65.5306 66.0871 65.5137 66.079 65.4947 66.0538Z" fill="#FECB00" stroke="black"/>
<path d="M46.1617 69.8364L49.4241 72.6633C49.4759 72.7082 49.4682 72.7907 49.409 72.8252L47 74.2299C46.9408 74.2645 46.8652 74.2305 46.8516 74.1633L45.9982 69.9318C45.9917 69.8994 45.9972 69.8813 46.0028 69.8698C46.01 69.855 46.0241 69.8383 46.0458 69.8256C46.0676 69.8129 46.0891 69.8089 46.1055 69.8099C46.1182 69.8107 46.1367 69.8148 46.1617 69.8364Z" fill="#FECB00" stroke="black"/>
</svg>
