<svg width="44" height="49" viewBox="0 0 44 49" fill="none" xmlns="http://www.w3.org/2000/svg">
<rect x="11.1101" y="9.00488" width="21.78" height="22.99" rx="10.89" fill="#FFE7E7"/>
<mask id="path-2-outside-1_152_72" maskUnits="userSpaceOnUse" x="15.8447" y="16" width="14" height="13" fill="black">
<rect fill="white" x="15.8447" y="16" width="14" height="13"/>
<path d="M23.1185 28.3041C21.7668 28.3041 20.6178 28.0507 19.6717 27.5438C18.7424 27.0369 18.0328 26.3357 17.5428 25.4403C17.0528 24.5448 16.8078 23.5141 16.8078 22.3483C16.8078 21.2332 17.095 20.2278 17.6695 19.3324C18.244 18.4369 19.0127 17.7272 19.9758 17.2035C20.9389 16.6628 22.0118 16.3924 23.1945 16.3924C24.7827 16.3924 26.0837 16.8571 27.0975 17.7864C28.1281 18.6988 28.7955 20.0251 29.0996 21.7654L20.4827 24.5025L19.697 22.5764L25.9316 20.4728L25.1967 20.8023C25.0615 20.363 24.8165 19.9828 24.4617 19.6618C24.1238 19.3239 23.6084 19.1549 22.9157 19.1549C22.3919 19.1549 21.9273 19.2817 21.5218 19.5351C21.1332 19.7716 20.829 20.118 20.6094 20.5742C20.4066 21.0135 20.3053 21.5373 20.3053 22.1455C20.3053 22.8383 20.432 23.4212 20.6854 23.8943C20.9389 24.3505 21.2852 24.6968 21.7245 24.9334C22.1638 25.1699 22.6538 25.2882 23.1945 25.2882C23.5831 25.2882 23.9548 25.2206 24.3096 25.0854C24.6813 24.9503 25.0446 24.7729 25.3994 24.5532L26.9707 27.189C26.3794 27.5269 25.7373 27.7972 25.0446 28C24.3688 28.2028 23.7267 28.3041 23.1185 28.3041Z"/>
</mask>
<path d="M23.1185 28.3041C21.7668 28.3041 20.6178 28.0507 19.6717 27.5438C18.7424 27.0369 18.0328 26.3357 17.5428 25.4403C17.0528 24.5448 16.8078 23.5141 16.8078 22.3483C16.8078 21.2332 17.095 20.2278 17.6695 19.3324C18.244 18.4369 19.0127 17.7272 19.9758 17.2035C20.9389 16.6628 22.0118 16.3924 23.1945 16.3924C24.7827 16.3924 26.0837 16.8571 27.0975 17.7864C28.1281 18.6988 28.7955 20.0251 29.0996 21.7654L20.4827 24.5025L19.697 22.5764L25.9316 20.4728L25.1967 20.8023C25.0615 20.363 24.8165 19.9828 24.4617 19.6618C24.1238 19.3239 23.6084 19.1549 22.9157 19.1549C22.3919 19.1549 21.9273 19.2817 21.5218 19.5351C21.1332 19.7716 20.829 20.118 20.6094 20.5742C20.4066 21.0135 20.3053 21.5373 20.3053 22.1455C20.3053 22.8383 20.432 23.4212 20.6854 23.8943C20.9389 24.3505 21.2852 24.6968 21.7245 24.9334C22.1638 25.1699 22.6538 25.2882 23.1945 25.2882C23.5831 25.2882 23.9548 25.2206 24.3096 25.0854C24.6813 24.9503 25.0446 24.7729 25.3994 24.5532L26.9707 27.189C26.3794 27.5269 25.7373 27.7972 25.0446 28C24.3688 28.2028 23.7267 28.3041 23.1185 28.3041Z" fill="#FE0000"/>
<path d="M19.6717 27.5438L19.5705 27.7292L19.5719 27.73L19.6717 27.5438ZM17.5428 25.4403L17.3575 25.5416L17.3575 25.5416L17.5428 25.4403ZM19.9758 17.2035L20.0767 17.389L20.0792 17.3876L19.9758 17.2035ZM27.0975 17.7864L26.9547 17.9421L26.9575 17.9445L27.0975 17.7864ZM29.0996 21.7654L29.1636 21.9667L29.3395 21.9108L29.3077 21.729L29.0996 21.7654ZM20.4827 24.5025L20.2871 24.5823L20.3608 24.7629L20.5466 24.7038L20.4827 24.5025ZM19.697 22.5764L19.6295 22.3763L19.4166 22.4481L19.5015 22.6561L19.697 22.5764ZM25.9316 20.4728L26.018 20.6656L25.8641 20.2727L25.9316 20.4728ZM25.1967 20.8023L24.9948 20.8644L25.0651 21.0927L25.2831 20.995L25.1967 20.8023ZM24.4617 19.6618L24.3122 19.8113L24.32 19.8184L24.4617 19.6618ZM21.5218 19.5351L21.6316 19.7155L21.6337 19.7142L21.5218 19.5351ZM20.6094 20.5742L20.4191 20.4826L20.4176 20.4857L20.6094 20.5742ZM20.6854 23.8943L20.4992 23.994L20.5008 23.9968L20.6854 23.8943ZM21.7245 24.9334L21.6244 25.1193L21.6244 25.1193L21.7245 24.9334ZM24.3096 25.0854L24.2374 24.8869L24.2344 24.8881L24.3096 25.0854ZM25.3994 24.5532L25.5808 24.4451L25.4709 24.2606L25.2882 24.3736L25.3994 24.5532ZM26.9707 27.189L27.0755 27.3724L27.2623 27.2656L27.1522 27.0808L26.9707 27.189ZM25.0446 28L24.9853 27.7973L24.9839 27.7977L25.0446 28ZM23.1185 28.0929C21.7927 28.0929 20.68 27.8444 19.7714 27.3576L19.5719 27.73C20.5557 28.257 21.7408 28.5153 23.1185 28.5153V28.0929ZM19.7728 27.3584C18.8777 26.8701 18.1979 26.1975 17.7281 25.3389L17.3575 25.5416C17.8676 26.474 18.6071 27.2037 19.5705 27.7292L19.7728 27.3584ZM17.7281 25.3389C17.2574 24.4787 17.019 23.4838 17.019 22.3483H16.5966C16.5966 23.5445 16.8482 24.6109 17.3575 25.5416L17.7281 25.3389ZM17.019 22.3483C17.019 21.2715 17.2957 20.3062 17.8473 19.4464L17.4917 19.2183C16.8944 20.1495 16.5966 21.1948 16.5966 22.3483H17.019ZM17.8473 19.4464C18.4019 18.5818 19.1439 17.8963 20.0767 17.389L19.8749 17.0179C18.8816 17.5581 18.086 18.292 17.4917 19.2183L17.8473 19.4464ZM20.0792 17.3876C21.0085 16.8659 22.0453 16.6036 23.1945 16.6036V16.1812C21.9782 16.1812 20.8693 16.4596 19.8724 17.0193L20.0792 17.3876ZM23.1945 16.6036C24.7386 16.6036 25.9859 17.054 26.9548 17.9421L27.2402 17.6307C26.1815 16.6602 24.8268 16.1812 23.1945 16.1812V16.6036ZM26.9575 17.9445C27.9432 18.8171 28.5933 20.095 28.8916 21.8017L29.3077 21.729C28.9977 19.9551 28.313 18.5804 27.2375 17.6282L26.9575 17.9445ZM29.0357 21.5641L20.4187 24.3012L20.5466 24.7038L29.1636 21.9667L29.0357 21.5641ZM20.6782 24.4228L19.8926 22.4966L19.5015 22.6561L20.2871 24.5823L20.6782 24.4228ZM19.7645 22.7765L25.9992 20.6729L25.8641 20.2727L19.6295 22.3763L19.7645 22.7765ZM25.8452 20.2801L25.1103 20.6096L25.2831 20.995L26.018 20.6656L25.8452 20.2801ZM25.3985 20.7402C25.2517 20.263 24.9852 19.8506 24.6034 19.5052L24.32 19.8184C24.6478 20.115 24.8713 20.463 24.9948 20.8644L25.3985 20.7402ZM24.611 19.5125C24.2187 19.1201 23.6392 18.9437 22.9157 18.9437V19.3661C23.5776 19.3661 24.0289 19.5277 24.3123 19.8112L24.611 19.5125ZM22.9157 18.9437C22.3563 18.9437 21.8521 19.0796 21.4098 19.356L21.6337 19.7142C22.0025 19.4837 22.4276 19.3661 22.9157 19.3661V18.9437ZM21.412 19.3547C20.9847 19.6148 20.6544 19.9939 20.4191 20.4826L20.7997 20.6658C21.0037 20.2421 21.2817 19.9285 21.6316 19.7155L21.412 19.3547ZM20.4176 20.4857C20.1992 20.9589 20.0941 21.5143 20.0941 22.1455H20.5165C20.5165 21.5602 20.6141 21.0681 20.8012 20.6627L20.4176 20.4857ZM20.0941 22.1455C20.0941 22.8632 20.2253 23.4826 20.4993 23.994L20.8716 23.7945C20.6387 23.3598 20.5165 22.8133 20.5165 22.1455H20.0941ZM20.5008 23.9968C20.7729 24.4866 21.1479 24.8627 21.6244 25.1193L21.8247 24.7474C21.4226 24.5309 21.1048 24.2143 20.8701 23.7917L20.5008 23.9968ZM21.6244 25.1193C22.097 25.3738 22.6219 25.4994 23.1945 25.4994V25.077C22.6858 25.077 22.2307 24.966 21.8247 24.7474L21.6244 25.1193ZM23.1945 25.4994C23.6082 25.4994 24.0054 25.4273 24.3848 25.2828L24.2344 24.8881C23.9042 25.0139 23.558 25.077 23.1945 25.077V25.4994ZM24.3818 25.2839C24.7678 25.1435 25.1441 24.9596 25.5106 24.7328L25.2882 24.3736C24.9451 24.5861 24.5948 24.757 24.2374 24.887L24.3818 25.2839ZM25.218 24.6614L26.7893 27.2971L27.1522 27.0808L25.5808 24.4451L25.218 24.6614ZM26.866 27.0056C26.2898 27.3349 25.6631 27.5989 24.9853 27.7973L25.1039 28.2027C25.8116 27.9956 26.469 27.719 27.0755 27.3724L26.866 27.0056ZM24.9839 27.7977C24.3247 27.9955 23.7032 28.0929 23.1185 28.0929V28.5153C23.7502 28.5153 24.4128 28.41 25.1053 28.2023L24.9839 27.7977Z" fill="#FE0000" mask="url(#path-2-outside-1_152_72)"/>
<rect x="15.2187" y="13.5338" width="1.33056" height="3.4848" rx="0.66528" transform="rotate(-32.4586 15.2187 13.5338)" fill="#FE0000"/>
<rect x="15.2187" y="13.5338" width="1.33056" height="3.4848" rx="0.66528" transform="rotate(-32.4586 15.2187 13.5338)" stroke="#FE0000" stroke-width="0.3168"/>
<rect x="21.4626" y="11.2707" width="1.33056" height="3.4848" rx="0.66528" fill="#FE0000"/>
<rect x="21.4626" y="11.2707" width="1.33056" height="3.4848" rx="0.66528" stroke="#FE0000" stroke-width="0.3168"/>
<rect x="27.5396" y="12.1151" width="1.33056" height="3.4848" rx="0.66528" transform="rotate(25.3849 27.5396 12.1151)" fill="#FE0000"/>
<rect x="27.5396" y="12.1151" width="1.33056" height="3.4848" rx="0.66528" transform="rotate(25.3849 27.5396 12.1151)" stroke="#FE0000" stroke-width="0.3168"/>
<rect x="21.2092" y="19.2222" width="2.48696" height="2.48696" rx="1.24348" fill="black"/>
<rect x="21.2092" y="19.2222" width="2.48696" height="2.48696" rx="1.24348" stroke="#FE0000" stroke-width="0.16896"/>
<path d="M28.6538 21.8112L28.5624 22.3159L28.2796 21.888L28.6538 21.8112Z" fill="#FE0000" stroke="#FE0000" stroke-width="0.3168"/>
<path d="M24.9622 24.8745L25.0392 24.3674L25.3341 24.787L24.9622 24.8745Z" fill="#FE0000" stroke="#FE0000" stroke-width="0.3168"/>
</svg>
