<svg width="312" height="312" viewBox="0 0 312 312" fill="none" xmlns="http://www.w3.org/2000/svg">
<g opacity="0.8">
<path d="M257.662 152.75C257.662 147.365 253.296 143 247.912 143C242.527 143 238.162 147.365 238.162 152.75C238.544 175.218 229.975 196.916 214.343 213.06C198.711 229.204 177.301 238.468 154.832 238.81C132.363 238.468 110.952 229.204 95.3204 213.06C79.6886 196.916 71.1193 175.218 71.5016 152.75C71.5016 147.365 67.1364 143 61.7516 143C56.3668 143 52.0016 147.365 52.0016 152.75C51.7063 206.18 91.9461 251.141 145.082 256.75V289.25C145.082 294.635 149.447 299 154.832 299C160.216 299 164.582 294.635 164.582 289.25V257.79C218.118 252.144 258.497 206.577 257.662 152.75Z" fill="#FECB00"/>
<path fill-rule="evenodd" clip-rule="evenodd" d="M221 156C221 191.899 191.899 221 156 221C120.101 221 91 191.899 91 156V91C91 55.1015 120.101 26 156 26C191.899 26 221 55.1015 221 91V156ZM156 45.5C130.871 45.5 110.5 65.871 110.5 91V156C110.5 181.129 130.871 201.5 156 201.5C181.129 201.5 201.5 181.129 201.5 156V91C201.5 65.871 181.129 45.5 156 45.5Z" fill="#FECB00"/>
<path d="M257.662 152.75C257.662 147.365 253.296 143 247.912 143C242.527 143 238.162 147.365 238.162 152.75C238.544 175.218 229.975 196.916 214.343 213.06C198.711 229.204 177.301 238.468 154.832 238.81C132.363 238.468 110.952 229.204 95.3204 213.06C79.6886 196.916 71.1193 175.218 71.5016 152.75C71.5016 147.365 67.1364 143 61.7516 143C56.3668 143 52.0016 147.365 52.0016 152.75C51.7063 206.18 91.9461 251.141 145.082 256.75V289.25C145.082 294.635 149.447 299 154.832 299C160.216 299 164.582 294.635 164.582 289.25V257.79C218.118 252.144 258.497 206.577 257.662 152.75Z" stroke="#FECB00" stroke-width="9.75"/>
<path fill-rule="evenodd" clip-rule="evenodd" d="M221 156C221 191.899 191.899 221 156 221C120.101 221 91 191.899 91 156V91C91 55.1015 120.101 26 156 26C191.899 26 221 55.1015 221 91V156ZM156 45.5C130.871 45.5 110.5 65.871 110.5 91V156C110.5 181.129 130.871 201.5 156 201.5C181.129 201.5 201.5 181.129 201.5 156V91C201.5 65.871 181.129 45.5 156 45.5Z" stroke="#FECB00" stroke-width="9.75"/>
</g>
</svg>
