<svg width="36" height="36" viewBox="0 0 36 36" fill="none" xmlns="http://www.w3.org/2000/svg">
<path fill-rule="evenodd" clip-rule="evenodd" d="M29.37 25.065L29.73 26.775C30.0712 28.2534 29.7343 29.8069 28.8115 31.0112C27.8887 32.2155 26.4763 32.9448 24.96 33H11.04C9.52378 32.9448 8.11137 32.2155 7.18854 31.0112C6.26571 29.8069 5.92887 28.2534 6.27002 26.775L6.63002 25.065C7.04407 22.7501 9.03395 21.049 11.385 21H24.615C26.9661 21.049 28.956 22.7501 29.37 25.065ZM24.96 30.735C25.7217 30.7262 26.4385 30.3733 26.91 29.775V29.79C27.4886 29.0643 27.714 28.1187 27.525 27.21L27.165 25.5C26.9653 24.2327 25.897 23.2838 24.615 23.235H11.385C10.1031 23.2838 9.03477 24.2327 8.83502 25.5L8.47502 27.21C8.29076 28.1139 8.51592 29.0529 9.09002 29.775C9.56152 30.3733 10.2783 30.7262 11.04 30.735H24.96Z" fill="#FECB00"/>
<path fill-rule="evenodd" clip-rule="evenodd" d="M18.75 18H17.25C13.9363 18 11.25 15.3137 11.25 12V8.03996C11.246 6.70205 11.7757 5.41778 12.7218 4.47173C13.6678 3.52568 14.9521 2.99596 16.29 2.99996H19.71C21.0479 2.99596 22.3322 3.52568 23.2782 4.47173C24.2243 5.41778 24.754 6.70205 24.75 8.03996V12C24.75 15.3137 22.0637 18 18.75 18ZM16.29 5.24996C14.7491 5.24996 13.5 6.49909 13.5 8.03996V12C13.5 14.071 15.1789 15.75 17.25 15.75H18.75C20.8211 15.75 22.5 14.071 22.5 12V8.03996C22.5 7.30001 22.2061 6.59036 21.6828 6.06713C21.1596 5.54391 20.45 5.24996 19.71 5.24996H16.29Z" fill="#FECB00"/>
<path fill-rule="evenodd" clip-rule="evenodd" d="M29.37 25.065L29.73 26.775C30.0712 28.2534 29.7343 29.8069 28.8115 31.0112C27.8887 32.2155 26.4763 32.9448 24.96 33H11.04C9.52378 32.9448 8.11137 32.2155 7.18854 31.0112C6.26571 29.8069 5.92887 28.2534 6.27002 26.775L6.63002 25.065C7.04407 22.7501 9.03395 21.049 11.385 21H24.615C26.9661 21.049 28.956 22.7501 29.37 25.065ZM24.96 30.735C25.7217 30.7262 26.4385 30.3733 26.91 29.775V29.79C27.4886 29.0643 27.714 28.1187 27.525 27.21L27.165 25.5C26.9653 24.2327 25.897 23.2838 24.615 23.235H11.385C10.1031 23.2838 9.03477 24.2327 8.83502 25.5L8.47502 27.21C8.29076 28.1139 8.51592 29.0529 9.09002 29.775C9.56152 30.3733 10.2783 30.7262 11.04 30.735H24.96Z" stroke="#FECB00"/>
<path fill-rule="evenodd" clip-rule="evenodd" d="M18.75 18H17.25C13.9363 18 11.25 15.3137 11.25 12V8.03996C11.246 6.70205 11.7757 5.41778 12.7218 4.47173C13.6678 3.52568 14.9521 2.99596 16.29 2.99996H19.71C21.0479 2.99596 22.3322 3.52568 23.2782 4.47173C24.2243 5.41778 24.754 6.70205 24.75 8.03996V12C24.75 15.3137 22.0637 18 18.75 18ZM16.29 5.24996C14.7491 5.24996 13.5 6.49909 13.5 8.03996V12C13.5 14.071 15.1789 15.75 17.25 15.75H18.75C20.8211 15.75 22.5 14.071 22.5 12V8.03996C22.5 7.30001 22.2061 6.59036 21.6828 6.06713C21.1596 5.54391 20.45 5.24996 19.71 5.24996H16.29Z" stroke="#FECB00"/>
</svg>
