<svg width="36" height="36" viewBox="0 0 36 36" fill="none" xmlns="http://www.w3.org/2000/svg">
    <path d="M25.5 22.2075V24.7075C25.5014 25.0176 25.4037 25.3224 25.2133 25.5915C25.0229 25.8606 24.744 26.1049 24.3959 26.2896C24.0478 26.4743 23.6385 26.6126 23.1947 26.7099C22.7509 26.8072 22.2826 26.8356 21.8212 26.7975C19.1058 26.4814 16.5595 25.5593 14.2712 24.0525C12.1283 22.6783 10.2799 20.8571 8.91375 18.8087C7.33 16.5772 6.35755 14.0915 6.02125 11.4388C5.98221 10.9843 6.01045 10.5232 6.10425 10.0861C6.19805 9.64899 6.35457 9.24535 6.56417 8.90129C6.77377 8.55723 7.03453 8.28053 7.34101 8.09055C7.64749 7.90057 7.98502 7.80145 8.3325 7.80125H10.9025C11.4639 7.79555 12.0074 7.97392 12.4327 8.3083C12.858 8.64267 13.1326 9.11818 13.195 9.63875C13.3261 10.7055 13.5779 11.7518 13.9437 12.7575C14.1024 13.2198 14.1353 13.7145 14.0372 14.1925C13.9391 14.6705 13.7152 15.1067 13.3912 15.4575L12.1537 16.6375C13.4754 18.9355 15.4083 20.8398 17.7737 22.135L19.0112 20.9125C19.3734 20.5957 19.8233 20.3772 20.3159 20.2819C20.8086 20.1865 21.3182 20.2185 21.7937 20.3725C22.8317 20.7273 23.9116 20.9717 25.0125 21.1C25.5549 21.1633 26.0496 21.4412 26.3964 21.8742C26.7432 22.3072 26.9272 22.8608 26.9175 23.43L25.5 22.2075Z" fill="currentColor"/>
</svg>