<svg width="36" height="36" viewBox="0 0 36 36" fill="none" xmlns="http://www.w3.org/2000/svg">
    <path d="M31.5 25.2075V29.7075C31.5014 30.1676 31.4037 30.6224 31.2133 31.0415C31.0229 31.4606 30.744 31.8349 30.3959 32.1396C30.0478 32.4443 29.6385 32.6726 29.1947 32.8099C28.7509 32.9472 28.2826 32.9906 27.8212 32.9375C23.6058 32.4514 19.5595 31.0593 15.9712 28.8525C12.6283 26.8283 9.77985 24.0571 7.71375 20.8087C5.43 17.2772 4.00755 13.2915 3.52125 9.13875C3.46721 8.68435 3.51045 8.22323 3.64925 7.78611C3.78805 7.34899 4.01957 6.94535 4.32917 6.60129C4.63877 6.25723 5.01953 5.98053 5.44601 5.79055C5.87249 5.60057 6.33502 5.50145 6.80250 5.50125H11.4025C12.2139 5.49355 12.9974 5.77392 13.6027 6.2883C14.208 6.80267 14.5926 7.51818 14.685 8.29875C14.8761 9.90549 15.2379 11.4818 15.7637 12.9975C16.0024 13.6798 16.0503 14.4145 15.9022 15.1225C15.7541 15.8305 15.4152 16.4867 14.9212 17.0175L13.0537 18.8375C14.9754 22.2355 17.8083 25.0098 21.2737 26.895L23.1412 25.0725C23.6834 24.5857 24.3533 24.2522 25.0759 24.1069C25.7986 23.9615 26.5482 24.0085 27.2437 24.2425C28.7917 24.7573 30.4016 25.1117 32.0425 25.3C32.8449 25.3933 33.5796 25.7912 34.0964 26.4142C34.6132 27.0372 34.8872 27.8408 34.8675 28.665L31.5 25.2075Z" stroke="#FECB00" stroke-width="2" stroke-linecap="round" stroke-linejoin="round"/>
    <path d="M31.5 25.2075V29.7075C31.5014 30.1676 31.4037 30.6224 31.2133 31.0415C31.0229 31.4606 30.744 31.8349 30.3959 32.1396C30.0478 32.4443 29.6385 32.6726 29.1947 32.8099C28.7509 32.9472 28.2826 32.9906 27.8212 32.9375C23.6058 32.4514 19.5595 31.0593 15.9712 28.8525C12.6283 26.8283 9.77985 24.0571 7.71375 20.8087C5.43 17.2772 4.00755 13.2915 3.52125 9.13875C3.46721 8.68435 3.51045 8.22323 3.64925 7.78611C3.78805 7.34899 4.01957 6.94535 4.32917 6.60129C4.63877 6.25723 5.01953 5.98053 5.44601 5.79055C5.87249 5.60057 6.33502 5.50145 6.80250 5.50125H11.4025C12.2139 5.49355 12.9974 5.77392 13.6027 6.2883C14.208 6.80267 14.5926 7.51818 14.685 8.29875C14.8761 9.90549 15.2379 11.4818 15.7637 12.9975C16.0024 13.6798 16.0503 14.4145 15.9022 15.1225C15.7541 15.8305 15.4152 16.4867 14.9212 17.0175L13.0537 18.8375C14.9754 22.2355 17.8083 25.0098 21.2737 26.895L23.1412 25.0725C23.6834 24.5857 24.3533 24.2522 25.0759 24.1069C25.7986 23.9615 26.5482 24.0085 27.2437 24.2425C28.7917 24.7573 30.4016 25.1117 32.0425 25.3C32.8449 25.3933 33.5796 25.7912 34.0964 26.4142C34.6132 27.0372 34.8872 27.8408 34.8675 28.665L31.5 25.2075Z" fill="#FECB00"/>
</svg>