<svg width="120" height="120" viewBox="0 0 120 120" fill="none" xmlns="http://www.w3.org/2000/svg">
<path fill-rule="evenodd" clip-rule="evenodd" d="M64.4 27.4808C65.8563 26.509 67.5693 25.9937 69.32 26.0008C71.7059 25.9468 74.0123 26.8598 75.7149 28.5322C77.4174 30.2046 78.3714 32.4943 78.36 34.8808V85.0408C78.375 88.3576 76.5484 91.4089 73.6178 92.9624C70.6872 94.5158 67.1367 94.3149 64.4 92.4408L38.8 75.3608C37.3359 74.3695 35.6081 73.84 33.84 73.8408H26.92C24.558 73.8514 22.289 72.9206 20.615 71.2541C18.941 69.5876 18 67.3229 18 64.9608V54.9608C18 52.5987 18.941 50.334 20.615 48.6675C22.289 47.001 24.558 46.0702 26.92 46.0808H33.84C35.6081 46.0816 37.3359 45.5521 38.8 44.5608L64.4 27.4808ZM69.32 87.9208C70.9172 87.921 72.2181 86.6378 72.24 85.0408V34.8808C72.2181 33.2838 70.9172 32.0007 69.32 32.0008C68.752 32.0061 68.1971 32.1726 67.72 32.4808L42.12 49.5608C39.6583 51.1625 36.7767 51.9978 33.84 51.9608H26.92C26.1096 51.9589 25.3349 52.2938 24.7812 52.8855C24.2274 53.4772 23.9445 54.2723 24 55.0808V65.0808C24.0219 66.6778 25.3228 67.961 26.92 67.9608H33.84C36.7767 67.9239 39.6583 68.7591 42.12 70.3608L67.72 87.4408C68.1971 87.7491 68.752 87.9155 69.32 87.9208Z" fill="#FECB00" stroke="#FECB00" stroke-width="2"/>
<rect x="85.396" y="42.5752" width="14" height="6" rx="3" transform="rotate(-20 85.396 42.5752)" fill="#FECB00"/>
<rect x="86" y="58" width="14" height="6" rx="3" fill="#FECB00"/>
<rect x="87.4482" y="73.7866" width="14" height="6" rx="3" transform="rotate(20 87.4482 73.7866)" fill="#FECB00"/>
<rect x="3.5" y="3.5" width="113" height="113" rx="56.5" stroke="#FECB00" stroke-width="7"/>
<line x1="66" y1="32" x2="66" y2="70" stroke="#FECB00" stroke-width="20"/>
<line x1="66" y1="50" x2="66" y2="88" stroke="#FECB00" stroke-width="20"/>
<line x1="57.9875" y1="40.4994" x2="55.9875" y2="80.4994" stroke="#FECB00" stroke-width="20"/>
<line x1="53.0796" y1="46.1906" x2="41.0796" y2="72.1906" stroke="#FECB00" stroke-width="20"/>
<line x1="50.3854" y1="60.6902" x2="21.7581" y2="59.9971" stroke="#FECB00" stroke-width="20"/>
</svg>
