<svg width="36" height="36" viewBox="0 0 36 36" fill="none" xmlns="http://www.w3.org/2000/svg">
    <path d="M24.75 6.75L15.25 14.5H9.25C8.85109 14.5 8.47032 14.737 8.18967 15.1197C7.90902 15.5024 7.75 16.0511 7.75 16.625V19.375C7.75 19.9489 7.90902 20.4976 8.18967 20.8803C8.47032 21.263 8.85109 21.5 9.25 21.5H15.25L24.75 29.25C24.9437 29.4204 25.1544 29.5136 25.3696 29.5255C25.5849 29.5374 25.8009 29.4675 25.9864 29.3178C26.1718 29.1681 26.3229 28.9402 26.4201 28.6723C26.5173 28.4044 26.5584 28.1098 26.54 27.816V8.184C26.5584 7.89016 26.5173 7.59556 26.4201 7.32767C26.3229 7.05977 26.1718 6.83194 25.9864 6.68219C25.8009 6.53245 25.5849 6.46264 25.3696 6.47453C25.1544 6.48641 24.9437 6.57961 24.75 6.75Z" fill="#FECB00"/>
    <path d="M28.75 9.5C30.3129 11.671 31.1343 14.4881 31.1343 17.445C31.1343 20.4019 30.3129 23.219 28.75 25.39" stroke="#FECB00" stroke-width="2.5" stroke-linecap="round" stroke-linejoin="round"/>
    <path d="M26.5 12C27.4192 13.4479 27.9978 15.2877 27.9978 17.14C27.9978 19.0923 27.4192 20.9321 26.5 22.38" stroke="#FECB00" stroke-width="2.5" stroke-linecap="round" stroke-linejoin="round"/>
</svg>